<svg width="85" height="67" viewBox="0 0 85 67" fill="none" xmlns="http://www.w3.org/2000/svg">
<g filter="url(#filter0_bd_0_1)">
<rect x="5" y="15" width="60" height="40" rx="7" fill="url(#paint0_linear_0_1)" fill-opacity="0.2" shape-rendering="crispEdges"/>
</g>
<g filter="url(#filter1_d_0_1)">
<circle cx="15" cy="48" r="11" fill="#2EE6FF"/>
</g>
<g filter="url(#filter2_d_0_1)">
<circle cx="61.5" cy="19.5" r="19.5" fill="#30B5FF"/>
</g>
<g filter="url(#filter3_bd_0_1)">
<rect x="8" y="12" width="60" height="40" rx="7" fill="url(#paint1_linear_0_1)" fill-opacity="0.2" shape-rendering="crispEdges"/>
</g>
<g filter="url(#filter4_bd_0_1)">
<rect x="12.25" y="15.25" width="52.5" height="34.5" rx="6.75" stroke="#2A3EA9" stroke-width="0.5" shape-rendering="crispEdges"/>
</g>
<path d="M21.876 35.664V27.924C21.876 27.708 22.028 27.6 22.332 27.6C22.452 27.6 22.552 27.628 22.632 27.684C22.72 27.74 22.764 27.82 22.764 27.924V35.124H26.7C26.804 35.124 26.884 35.168 26.94 35.256C27.004 35.344 27.036 35.448 27.036 35.568C27.036 35.856 26.924 36 26.7 36H22.572C22.108 36 21.876 35.888 21.876 35.664ZM27.3651 31.824C27.3651 30.6 27.7051 29.58 28.3851 28.764C29.0731 27.948 29.8891 27.54 30.8331 27.54C31.7771 27.54 32.5731 27.96 33.2211 28.8C33.8771 29.632 34.2051 30.628 34.2051 31.788C34.2051 33.068 33.8851 34.1 33.2451 34.884C32.6131 35.66 31.8091 36.052 30.8331 36.06C29.8891 36.06 29.0731 35.664 28.3851 34.872C27.7051 34.08 27.3651 33.064 27.3651 31.824ZM28.2531 31.836C28.2531 32.748 28.5051 33.532 29.0091 34.188C29.5211 34.844 30.1291 35.172 30.8331 35.172C31.5291 35.172 32.1171 34.844 32.5971 34.188C33.0771 33.524 33.3171 32.732 33.3171 31.812C33.3171 30.932 33.0731 30.148 32.5851 29.46C32.1051 28.772 31.5211 28.428 30.8331 28.428C30.1291 28.428 29.5211 28.776 29.0091 29.472C28.5051 30.168 28.2531 30.956 28.2531 31.836ZM35.3567 31.74C35.3567 30.932 35.5767 30.196 36.0167 29.532C36.4567 28.868 37.0247 28.36 37.7207 28.008C38.4167 27.648 39.1527 27.468 39.9287 27.468C40.6487 27.468 41.3167 27.716 41.9327 28.212C41.9967 28.268 42.0287 28.34 42.0287 28.428C42.0287 28.556 41.9767 28.676 41.8727 28.788C41.7687 28.892 41.6607 28.944 41.5487 28.944C41.4687 28.944 41.4007 28.916 41.3447 28.86C40.9607 28.524 40.4807 28.356 39.9047 28.356C38.8487 28.356 37.9767 28.696 37.2887 29.376C36.6007 30.056 36.2567 30.84 36.2567 31.728C36.2567 32.184 36.3047 32.612 36.4007 33.012C36.5047 33.404 36.6647 33.772 36.8807 34.116C37.1047 34.452 37.4167 34.72 37.8167 34.92C38.2247 35.12 38.7007 35.22 39.2447 35.22C39.9727 35.22 40.5287 34.96 40.9127 34.44C41.3047 33.92 41.5087 33.252 41.5247 32.436H39.1127C38.8967 32.436 38.7887 32.284 38.7887 31.98C38.7887 31.86 38.8167 31.76 38.8727 31.68C38.9287 31.592 39.0087 31.548 39.1127 31.548H42.0527C42.1807 31.548 42.2647 31.596 42.3047 31.692C42.3447 31.78 42.3647 31.928 42.3647 32.136C42.3647 33.328 42.1007 34.288 41.5727 35.016C41.0527 35.744 40.3367 36.108 39.4247 36.108C38.7367 36.108 38.1247 35.988 37.5887 35.748C37.0527 35.508 36.6247 35.18 36.3047 34.764C35.9927 34.348 35.7567 33.888 35.5967 33.384C35.4367 32.872 35.3567 32.324 35.3567 31.74ZM43.4432 31.824C43.4432 30.6 43.7832 29.58 44.4632 28.764C45.1512 27.948 45.9672 27.54 46.9112 27.54C47.8552 27.54 48.6512 27.96 49.2992 28.8C49.9552 29.632 50.2832 30.628 50.2832 31.788C50.2832 33.068 49.9632 34.1 49.3232 34.884C48.6912 35.66 47.8872 36.052 46.9112 36.06C45.9672 36.06 45.1512 35.664 44.4632 34.872C43.7832 34.08 43.4432 33.064 43.4432 31.824ZM44.3312 31.836C44.3312 32.748 44.5832 33.532 45.0872 34.188C45.5992 34.844 46.2072 35.172 46.9112 35.172C47.6072 35.172 48.1952 34.844 48.6752 34.188C49.1552 33.524 49.3952 32.732 49.3952 31.812C49.3952 30.932 49.1512 30.148 48.6632 29.46C48.1832 28.772 47.5992 28.428 46.9112 28.428C46.2072 28.428 45.5992 28.776 45.0872 29.472C44.5832 30.168 44.3312 30.956 44.3312 31.836Z" fill="#427A82"/>
<defs>
<filter id="filter0_bd_0_1" x="1" y="11" width="68" height="52" filterUnits="userSpaceOnUse" color-interpolation-filters="sRGB">
<feFlood flood-opacity="0" result="BackgroundImageFix"/>
<feGaussianBlur in="BackgroundImageFix" stdDeviation="2"/>
<feComposite in2="SourceAlpha" operator="in" result="effect1_backgroundBlur_0_1"/>
<feColorMatrix in="SourceAlpha" type="matrix" values="0 0 0 0 0 0 0 0 0 0 0 0 0 0 0 0 0 0 127 0" result="hardAlpha"/>
<feOffset dy="4"/>
<feGaussianBlur stdDeviation="2"/>
<feComposite in2="hardAlpha" operator="out"/>
<feColorMatrix type="matrix" values="0 0 0 0 0 0 0 0 0 0 0 0 0 0 0 0 0 0 0.25 0"/>
<feBlend mode="normal" in2="effect1_backgroundBlur_0_1" result="effect2_dropShadow_0_1"/>
<feBlend mode="normal" in="SourceGraphic" in2="effect2_dropShadow_0_1" result="shape"/>
</filter>
<filter id="filter1_d_0_1" x="0" y="37" width="30" height="30" filterUnits="userSpaceOnUse" color-interpolation-filters="sRGB">
<feFlood flood-opacity="0" result="BackgroundImageFix"/>
<feColorMatrix in="SourceAlpha" type="matrix" values="0 0 0 0 0 0 0 0 0 0 0 0 0 0 0 0 0 0 127 0" result="hardAlpha"/>
<feOffset dy="4"/>
<feGaussianBlur stdDeviation="2"/>
<feComposite in2="hardAlpha" operator="out"/>
<feColorMatrix type="matrix" values="0 0 0 0 0 0 0 0 0 0 0 0 0 0 0 0 0 0 0.25 0"/>
<feBlend mode="normal" in2="BackgroundImageFix" result="effect1_dropShadow_0_1"/>
<feBlend mode="normal" in="SourceGraphic" in2="effect1_dropShadow_0_1" result="shape"/>
</filter>
<filter id="filter2_d_0_1" x="38" y="0" width="47" height="47" filterUnits="userSpaceOnUse" color-interpolation-filters="sRGB">
<feFlood flood-opacity="0" result="BackgroundImageFix"/>
<feColorMatrix in="SourceAlpha" type="matrix" values="0 0 0 0 0 0 0 0 0 0 0 0 0 0 0 0 0 0 127 0" result="hardAlpha"/>
<feOffset dy="4"/>
<feGaussianBlur stdDeviation="2"/>
<feComposite in2="hardAlpha" operator="out"/>
<feColorMatrix type="matrix" values="0 0 0 0 0 0 0 0 0 0 0 0 0 0 0 0 0 0 0.25 0"/>
<feBlend mode="normal" in2="BackgroundImageFix" result="effect1_dropShadow_0_1"/>
<feBlend mode="normal" in="SourceGraphic" in2="effect1_dropShadow_0_1" result="shape"/>
</filter>
<filter id="filter3_bd_0_1" x="4" y="8" width="68" height="52" filterUnits="userSpaceOnUse" color-interpolation-filters="sRGB">
<feFlood flood-opacity="0" result="BackgroundImageFix"/>
<feGaussianBlur in="BackgroundImageFix" stdDeviation="2"/>
<feComposite in2="SourceAlpha" operator="in" result="effect1_backgroundBlur_0_1"/>
<feColorMatrix in="SourceAlpha" type="matrix" values="0 0 0 0 0 0 0 0 0 0 0 0 0 0 0 0 0 0 127 0" result="hardAlpha"/>
<feOffset dy="4"/>
<feGaussianBlur stdDeviation="2"/>
<feComposite in2="hardAlpha" operator="out"/>
<feColorMatrix type="matrix" values="0 0 0 0 0 0 0 0 0 0 0 0 0 0 0 0 0 0 0.25 0"/>
<feBlend mode="normal" in2="effect1_backgroundBlur_0_1" result="effect2_dropShadow_0_1"/>
<feBlend mode="normal" in="SourceGraphic" in2="effect2_dropShadow_0_1" result="shape"/>
</filter>
<filter id="filter4_bd_0_1" x="8" y="11" width="61" height="47" filterUnits="userSpaceOnUse" color-interpolation-filters="sRGB">
<feFlood flood-opacity="0" result="BackgroundImageFix"/>
<feGaussianBlur in="BackgroundImageFix" stdDeviation="2"/>
<feComposite in2="SourceAlpha" operator="in" result="effect1_backgroundBlur_0_1"/>
<feColorMatrix in="SourceAlpha" type="matrix" values="0 0 0 0 0 0 0 0 0 0 0 0 0 0 0 0 0 0 127 0" result="hardAlpha"/>
<feOffset dy="4"/>
<feGaussianBlur stdDeviation="2"/>
<feComposite in2="hardAlpha" operator="out"/>
<feColorMatrix type="matrix" values="0 0 0 0 0 0 0 0 0 0 0 0 0 0 0 0 0 0 0.25 0"/>
<feBlend mode="normal" in2="effect1_backgroundBlur_0_1" result="effect2_dropShadow_0_1"/>
<feBlend mode="normal" in="SourceGraphic" in2="effect2_dropShadow_0_1" result="shape"/>
</filter>
<linearGradient id="paint0_linear_0_1" x1="5" y1="16.5" x2="75.5" y2="64.5" gradientUnits="userSpaceOnUse">
<stop stop-color="white" stop-opacity="0.7"/>
<stop offset="1" stop-color="white" stop-opacity="0.35"/>
</linearGradient>
<linearGradient id="paint1_linear_0_1" x1="8" y1="13.5" x2="78.5" y2="61.5" gradientUnits="userSpaceOnUse">
<stop stop-color="white" stop-opacity="0.7"/>
<stop offset="1" stop-color="white" stop-opacity="0.35"/>
</linearGradient>
</defs>
</svg>
